<svg xmlns="http://www.w3.org/2000/svg" fill="none" viewBox="0 0 48 48" id="Ai-Generate-Video-Camera-Spark--Streamline-Plump-Gradient.svg" height="48" width="48" stroke-width="1"><desc>Ai Generate Video Camera Spark Streamline Icon: https://streamlinehq.com</desc><g id="ai-generate-video-camera-spark--television-movies-tv-media-video-entertainment-artificial-intelligence-ai"><path id="Union" fill="url(#paint0_linear_6520_1339)" fill-rule="evenodd" d="M18.958.540039c-4.5901 0-8.2419.383078-10.75656.769071-3.03015.46512-5.1928 2.93459-5.41572 5.93146-.16946 2.27806-.32771 5.54453-.32771 9.79943 0 4.2549.15825 7.5214.32771 9.7995.08246 1.1086.43037 2.1451.98944 3.0346l.26939-.1473c.25168-.1377.45861-.3446.59627-.5963l1.9917-3.6417c2.08622-3.8145 7.56468-3.8145 9.65088 0l1.9917 3.6417c.1377.2517.3446.4586.5963.5963l3.6417 1.9917c.7761.4244 1.3943.9894 1.8546 1.6376 2.1247-.1477 3.9191-.366 5.3469-.5851 3.0301-.4652 5.1928-2.9346 5.4157-5.9315.0425-.5717.0844-1.2057.1231-1.902 1.8091 1.0844 3.9647 2.2093 6.2993 3.0873 2.5188.9473 5.1041-.7285 5.4334-3.3175.2394-1.8825.4719-4.5204.4719-7.6673 0-3.1468-.2325-5.7847-.4719-7.66719-.3293-2.58904-2.9146-4.2648-5.4334-3.31751-2.3346.87797-4.4902 2.0029-6.2993 3.08728-.0387-.69627-.0806-1.33028-.1231-1.90202-.2229-2.99686-2.3856-5.46633-5.4157-5.93145C27.1999.923117 23.5482.540039 18.958.540039ZM9.26458 26.9283c.94832-1.7338 3.43852-1.7338 4.38682 0l1.9917 3.6417c.4129.7551 1.0337 1.3759 1.7888 1.7888l3.6417 1.9917c1.7338.9483 1.7338 3.4385 0 4.3868l-3.6417 1.9917c-.7551.413-1.3759 1.0338-1.7888 1.7888l-1.9917 3.6417c-.9483 1.7339-3.4385 1.7338-4.38682 0l-1.9917-3.6417c-.41295-.755-1.03376-1.3758-1.78881-1.7888l-3.64168-1.9917c-1.733868-.9483-1.733859-3.4385 0-4.3868l3.64168-1.9917c.75505-.4129 1.37586-1.0337 1.78881-1.7888l1.9917-3.6417Z" clip-rule="evenodd"></path></g><defs><linearGradient id="paint0_linear_6520_1339" x1="2.345" x2="55.819" y1="4.332" y2="34.468" gradientUnits="userSpaceOnUse"><stop stop-color="#00D078"></stop><stop offset="1" stop-color="#007DF0"></stop></linearGradient></defs></svg>