<svg xmlns="http://www.w3.org/2000/svg" fill="none" viewBox="0 0 48 48" id="Home-4--Streamline-Plump-Gradient.svg" height="48" width="48" stroke-width="1"><desc>Home 4 Streamline Icon: https://streamlinehq.com</desc><g id="home-4--home-house-roof-shelter"><path id="Subtract" fill="url(#paint0_linear_6690_2133)" fill-rule="evenodd" d="M21.9369 2.11156c1.3251-.52888 2.8011-.52897 4.1264-.00017 3.8533 1.53753 7.8424 4.80221 11.3968 8.43081 3.5821 3.657 6.8449 7.8112 9.2368 11.2897 1.405 2.0432.2112 4.7978-2.3334 5.0338-.5461.0506-1.1829.1031-1.9223.1551-.0815 5.7863-.2305 10.812-.3354 13.8773-.0873 2.5494-1.9546 4.7382-4.59 5.0108-2.71.2803-7.1566.5928-13.5157.5927-6.359 0-10.8031-.3123-13.5109-.5927-2.63357-.2726-4.49989-2.459-4.58846-5.0067-.10655-3.0651-.258-8.0927-.34083-13.8813-.74018-.0521-1.37766-.1046-1.92418-.1553-2.5439-.2359-3.738227-2.9898-2.33367-5.0331 2.39131-3.4788 5.65473-7.6331 9.23734-11.29 3.5549-3.62868 7.5446-6.89326 11.3975-8.43094ZM18 36.001c-1.1046 0-2 .8954-2 2 0 1.1045.8954 2 2 2h12c1.1046 0 2-.8955 2-2 0-1.1046-.8954-2-2-2H18Z" clip-rule="evenodd"></path></g><defs><linearGradient id="paint0_linear_6690_2133" x1="51.331" x2="-9.826" y1="55.988" y2="10.797" gradientUnits="userSpaceOnUse"><stop stop-color="#ffd600"></stop><stop offset="1" stop-color="#ff007a"></stop></linearGradient></defs></svg>