<svg xmlns="http://www.w3.org/2000/svg" fill="none" viewBox="0 0 48 48" id="Double-Bookmark--Streamline-Plump-Gradient.svg" height="48" width="48" stroke-width="1"><desc>Double Bookmark Streamline Icon: https://streamlinehq.com</desc><g id="double-bookmark--bookmarks-double-tags-favorite"><path id="Union" fill="url(#paint0_linear_6680_1539)" fill-rule="evenodd" d="M27.9999.5c-4.6316 0-8.5471.21986-11.2565.433138-2.8005.220442-5.1152 2.108102-5.72 4.834982C13.5008 5.61907 16.5568 5.5 19.9999 5.5c4.7243 0 8.7198.22418 11.4919.44239 4.4531.35053 8.2241 3.69627 8.6074 8.47121.2131 2.6552.4007 6.7081.4007 12.7682v12.3156c.053.0017.1061.0026.1593.0026 2.6718 0 4.8407-2.1629 4.8407-4.838V19.1818c0-6.0017-.1859-9.9719-.3911-12.52816-.2566-3.19773-2.758-5.47692-5.8524-5.720502C36.547.71986 32.6314.5 27.9999.5ZM8.74348 8.93314C11.4529 8.71986 15.3684 8.5 20 8.5s8.5471.21986 11.2565.43314c3.0945.24358 5.5958 2.52276 5.8525 5.72046.2051 2.5563.391 6.5265.391 12.5282V42.662c0 2.6751-2.1689 4.838-4.8407 4.838-1.0386 0-2.0497-.3341-2.8839-.9528l-8.286-6.1463c-.8845-.6561-2.0943-.6561-2.9788 0l-8.286 6.1463c-.83421.6187-1.84529.9528-2.8839.9528C4.66886 47.5 2.5 45.3371 2.5 42.662V27.1818c0-6.0017.18586-9.9719.39105-12.5282.25667-3.1977 2.75799-5.47688 5.85243-5.72046Z" clip-rule="evenodd"></path></g><defs><linearGradient id="paint0_linear_6680_1539" x1="4.152" x2="55.165" y1="4.298" y2="30.603" gradientUnits="userSpaceOnUse"><stop stop-color="#00d078"></stop><stop offset="1" stop-color="#007df0"></stop></linearGradient></defs></svg>